<!DOCTYPE svg PUBLIC "-//W3C//DTD SVG 1.1//EN" "http://www.w3.org/Graphics/SVG/1.1/DTD/svg11.dtd">
<svg xmlns="http://www.w3.org/2000/svg" xmlns:xlink="http://www.w3.org/1999/xlink" version="1.1" width="102px" height="107px" viewBox="-0.5 -0.5 102 107"><defs><linearGradient x1="0%" y1="0%" x2="0%" y2="100%" id="mx-gradient-99ffcc-1-ffffff-1-s-0"><stop offset="0%" style="stop-color:#99FFCC"/><stop offset="100%" style="stop-color:#ffffff"/></linearGradient><linearGradient x1="0%" y1="0%" x2="0%" y2="100%" id="mx-gradient-99ffff-1-ffffff-1-s-0"><stop offset="0%" style="stop-color:#99FFFF"/><stop offset="100%" style="stop-color:#ffffff"/></linearGradient><linearGradient x1="0%" y1="0%" x2="0%" y2="100%" id="mx-gradient-99ccff-1-ffffff-1-s-0"><stop offset="0%" style="stop-color:#99CCFF"/><stop offset="100%" style="stop-color:#ffffff"/></linearGradient><linearGradient x1="0%" y1="0%" x2="0%" y2="100%" id="mx-gradient-ff99ff-1-ffffff-1-s-0"><stop offset="0%" style="stop-color:#FF99FF"/><stop offset="100%" style="stop-color:#ffffff"/></linearGradient><linearGradient x1="0%" y1="0%" x2="0%" y2="100%" id="mx-gradient-ff99cc-1-ff99cc-1-s-0"><stop offset="0%" style="stop-color:#FF99CC"/><stop offset="100%" style="stop-color:#FF99CC"/></linearGradient><linearGradient x1="0%" y1="0%" x2="0%" y2="100%" id="mx-gradient-ffcc99-1-ffffff-1-s-0"><stop offset="0%" style="stop-color:#FFCC99"/><stop offset="100%" style="stop-color:#ffffff"/></linearGradient><linearGradient x1="0%" y1="0%" x2="100%" y2="0%" id="mx-gradient-99ffcc-1-ffffff-1-e-0"><stop offset="0%" style="stop-color:#99FFCC"/><stop offset="100%" style="stop-color:#FFFFFF"/></linearGradient></defs><g><ellipse cx="50" cy="50" rx="50" ry="50" fill="url(#mx-gradient-99ffcc-1-ffffff-1-s-0)" stroke="#000000" stroke-width="1.25" pointer-events="none"/><ellipse cx="50" cy="56" rx="44.375" ry="44.375" fill="url(#mx-gradient-99ffff-1-ffffff-1-s-0)" stroke="#000000" stroke-width="1.25" pointer-events="none"/><ellipse cx="50" cy="62" rx="38.125" ry="38.125" fill="url(#mx-gradient-99ccff-1-ffffff-1-s-0)" stroke="#000000" stroke-width="1.25" pointer-events="none"/><ellipse cx="50" cy="68" rx="31.875" ry="31.875" fill="url(#mx-gradient-ff99ff-1-ffffff-1-s-0)" stroke="#000000" stroke-width="1.25" pointer-events="none"/><ellipse cx="50" cy="74" rx="25.625" ry="25.625" fill="url(#mx-gradient-ff99cc-1-ff99cc-1-s-0)" stroke="#000000" stroke-width="1.25" pointer-events="none"/><ellipse cx="50" cy="81" rx="19.375" ry="19.375" fill="url(#mx-gradient-ffcc99-1-ffffff-1-s-0)" stroke="#000000" stroke-width="1.25" pointer-events="none"/><path d="M 50 52.5 C 31.25 71.72 31.25 100.78 50 120 C 68.75 100.78 68.75 71.72 50 52.5 Z" fill="url(#mx-gradient-99ffcc-1-ffffff-1-e-0)" stroke="#000000" stroke-width="1.25" stroke-miterlimit="10" transform="rotate(90,50,86.25)" pointer-events="none"/><ellipse cx="50" cy="50" rx="50" ry="50" fill="none" stroke="#000000" stroke-width="1.25" pointer-events="none"/></g></svg>